<svg width="16" height="16" viewBox="0 0 16 16" fill="none" xmlns="http://www.w3.org/2000/svg">
<path d="M16 8.0541V9.64323H12.8073C13.5345 11.3436 13.4982 15.9998 8.27636 15.9998C2.21818 16.0395 2.45091 10.8351 2.45091 10.8351L5.33818 10.8748C5.36 13.5525 7.63636 13.5525 8.08727 13.5207C8.55273 13.481 10.2909 13.4889 10.4291 11.6297C10.4873 10.7636 9.68727 10.1041 8.81455 9.64323H0V8.0541H16ZM13.3891 4.78842L10.4945 4.76459C10.4945 4.76459 10.6182 2.56364 8.10909 2.55569C5.6 2.5398 5.81818 4.30374 5.81818 4.52622C5.84727 4.7487 6.06545 5.8452 8 6.36961H3.42545C3.42545 6.36961 0.887272 1.02217 7.08364 0.108422C13.4182 -0.84506 13.4036 4.80432 13.3891 4.78842Z" fill="#D9D9D9"/>
</svg>
