<svg width="16" height="16" viewBox="0 0 16 16" fill="none" xmlns="http://www.w3.org/2000/svg">
<path d="M0 16H16V14.2222H0V16ZM8 12.4444C9.81863 12.4444 11.5628 11.8825 12.8487 10.8823C14.1347 9.88215 14.8571 8.5256 14.8571 7.11111V0H12V7.11111C12 7.93623 11.5786 8.72755 10.8284 9.311C10.0783 9.89445 9.06087 10.2222 8 10.2222C6.93913 10.2222 5.92172 9.89445 5.17157 9.311C4.42143 8.72755 4 7.93623 4 7.11111V0H1.14286V7.11111C1.14286 8.5256 1.8653 9.88215 3.15127 10.8823C4.43723 11.8825 6.18137 12.4444 8 12.4444V12.4444Z" fill="#D9D9D9"/>
</svg>
